<?xml version="1.0" encoding="UTF-8" standalone="no"?>
<!-- Created with Inkscape (http://www.inkscape.org/) -->

<svg
   width="210mm"
   height="297mm"
   viewBox="0 0 210 297"
   version="1.1"
   id="svg1"
   xmlns="http://www.w3.org/2000/svg"
   xmlns:svg="http://www.w3.org/2000/svg">
  <defs
     id="defs1" />
  <g
     id="layer1">
    <text
       xml:space="preserve"
       style="font-size:131.657px;text-align:start;writing-mode:lr-tb;direction:ltr;text-anchor:start;fill:#e0e1dd;fill-opacity:1;stroke-width:10.9714"
       x="50.137512"
       y="278.17654"
       id="text1-8"
       transform="scale(1.1628258,0.85997403)"><tspan
         id="tspan1-8"
         style="fill:#e0e1dd;fill-opacity:1;stroke-width:10.9714"
         x="50.137512"
         y="278.17654">T</tspan></text>
    <text
       xml:space="preserve"
       style="font-size:117.032px;text-align:start;writing-mode:lr-tb;direction:ltr;text-anchor:start;fill:#778da9;fill-opacity:1;stroke-width:9.75283"
       x="59.80756"
       y="-51.496265"
       id="text1-8-5"
       transform="scale(0.89683478,-1.1150326)"><tspan
         id="tspan1-8-1"
         style="fill:#778da9;fill-opacity:1;stroke-width:9.75283"
         x="59.80756"
         y="-51.496265">W</tspan></text>
    <circle
       id="path1"
       style="fill:#000000;stroke:#000000;stroke-width:0.264583"
       cx="74.001526"
       cy="145.74016"
       r="0.055797052" />
    <circle
       id="path5"
       style="fill:#000000;stroke:#000000;stroke-width:0.264583"
       cx="93.008972"
       cy="158.76256"
       r="0.019727238" />
    <path
       style="fill:#778da9;fill-opacity:1;stroke-width:0.264583"
       id="path19"
       d="m 85.036672,147.45275 -7.443187,-4.08183 -7.58217,3.81747 1.581979,-8.34025 -5.973647,-6.03141 8.420904,-1.07272 3.890254,-7.54509 3.622425,7.67727 8.377956,1.36829 -6.182122,5.81754 z"
       transform="matrix(0.88800178,0,0,0.87390038,15.727281,14.404737)" />
    <path
       style="fill:#778da9;fill-opacity:1;stroke-width:0.264583"
       id="path19-3"
       d="m 85.036672,147.45275 -7.443187,-4.08183 -7.58217,3.81747 1.581979,-8.34025 -5.973647,-6.03141 8.420904,-1.07272 3.890254,-7.54509 3.622425,7.67727 8.377956,1.36829 -6.182122,5.81754 z"
       transform="matrix(0.88800178,0,0,0.87390038,58.639938,14.857817)" />
    <path
       style="fill:#778da9;fill-opacity:1;stroke-width:0.264583"
       id="path19-2"
       d="m 85.036672,147.45275 -7.443187,-4.08183 -7.58217,3.81747 1.581979,-8.34025 -5.973647,-6.03141 8.420904,-1.07272 3.890254,-7.54509 3.622425,7.67727 8.377956,1.36829 -6.182122,5.81754 z"
       transform="matrix(0.88800178,0,0,0.87390038,14.705882,60.118901)" />
    <path
       style="fill:#778da9;fill-opacity:1;stroke-width:0.264583"
       id="path19-3-8"
       d="m 85.036672,147.45275 -7.443187,-4.08183 -7.58217,3.81747 1.581979,-8.34025 -5.973647,-6.03141 8.420904,-1.07272 3.890254,-7.54509 3.622425,7.67727 8.377956,1.36829 -6.182122,5.81754 z"
       transform="matrix(0.88800178,0,0,0.87390038,58.518743,60.52552)" />
  </g>
</svg>
